<mxfile host="app.diagrams.net" modified="2022-07-07T12:25:40.938Z" agent="5.0 (Macintosh; Intel Mac OS X 10_15_7) AppleWebKit/537.36 (KHTML, like Gecko) Chrome/103.0.0.0 Safari/537.36" etag="NtgyasiZtHBG9i3f566u" version="20.0.4" type="github" pages="3">
  <diagram id="69lcJnnVdo47gHZ_Uk3F" name="Page-1">
    <mxGraphModel dx="987" dy="681" grid="1" gridSize="10" guides="1" tooltips="1" connect="1" arrows="1" fold="1" page="1" pageScale="1" pageWidth="827" pageHeight="1169" math="0" shadow="0">
      <root>
        <mxCell id="0" />
        <mxCell id="1" parent="0" />
        <mxCell id="jZKKh2bfGqSGBnHuGTNr-1" value="" style="rounded=0;whiteSpace=wrap;html=1;fillColor=#d5e8d4;strokeColor=#82b366;" parent="1" vertex="1">
          <mxGeometry x="260" y="140" width="286" height="60" as="geometry" />
        </mxCell>
        <mxCell id="jZKKh2bfGqSGBnHuGTNr-23" value="" style="shape=flexArrow;endArrow=classic;html=1;rounded=0;fontColor=#007FFF;entryX=0.093;entryY=1.032;entryDx=0;entryDy=0;fillColor=#f5f5f5;strokeColor=#666666;exitX=0.191;exitY=0.65;exitDx=0;exitDy=0;entryPerimeter=0;exitPerimeter=0;" parent="1" source="jZKKh2bfGqSGBnHuGTNr-16" target="jZKKh2bfGqSGBnHuGTNr-1" edge="1">
          <mxGeometry width="50" height="50" relative="1" as="geometry">
            <mxPoint x="540" y="260" as="sourcePoint" />
            <mxPoint x="435.4999999999998" y="311" as="targetPoint" />
          </mxGeometry>
        </mxCell>
        <mxCell id="jZKKh2bfGqSGBnHuGTNr-20" value="" style="shape=flexArrow;endArrow=classic;html=1;rounded=0;fontColor=#007FFF;entryX=1;entryY=0.5;entryDx=0;entryDy=0;fillColor=#f5f5f5;strokeColor=#666666;" parent="1" target="jZKKh2bfGqSGBnHuGTNr-16" edge="1">
          <mxGeometry width="50" height="50" relative="1" as="geometry">
            <mxPoint x="530" y="250" as="sourcePoint" />
            <mxPoint x="230" y="310" as="targetPoint" />
          </mxGeometry>
        </mxCell>
        <mxCell id="jZKKh2bfGqSGBnHuGTNr-2" value="TCB" style="rounded=0;whiteSpace=wrap;html=1;fillColor=#dae8fc;strokeColor=#6c8ebf;" parent="1" vertex="1">
          <mxGeometry x="270" y="147.5" width="70" height="45" as="geometry" />
        </mxCell>
        <mxCell id="jZKKh2bfGqSGBnHuGTNr-3" value="TCB" style="rounded=0;whiteSpace=wrap;html=1;fillColor=#dae8fc;strokeColor=#6c8ebf;" parent="1" vertex="1">
          <mxGeometry x="350" y="147.5" width="70" height="45" as="geometry" />
        </mxCell>
        <mxCell id="jZKKh2bfGqSGBnHuGTNr-4" value="TCB" style="rounded=0;whiteSpace=wrap;html=1;fillColor=#dae8fc;strokeColor=#6c8ebf;" parent="1" vertex="1">
          <mxGeometry x="470" y="147.5" width="70" height="45" as="geometry" />
        </mxCell>
        <mxCell id="jZKKh2bfGqSGBnHuGTNr-6" value="TaskManager.ready_queue" style="text;html=1;align=center;verticalAlign=middle;resizable=0;points=[];autosize=1;strokeColor=none;fillColor=none;" parent="1" vertex="1">
          <mxGeometry x="260" y="120" width="160" height="20" as="geometry" />
        </mxCell>
        <mxCell id="jZKKh2bfGqSGBnHuGTNr-11" value="" style="shape=image;verticalLabelPosition=bottom;labelBackgroundColor=default;verticalAlign=top;aspect=fixed;imageAspect=0;image=data:image/png,iVBORw0KGgoAAAANSUhEUgAAAMgAAADICAYAAACtWK6eAAAAAXNSR0IArs4c6QAAGCBJREFUeF7tnQuUXVV5x7/vnJmRiSyoWIIvBAUDCILWII8kc84+d5KJIQEFSatSSnnJwqJErKIVG1DUVGsshbaGRVlIpHSAUklJjbn37HMTSHiEZ3gokaoYFWkx4pCQZLjn69rxxhXCzOTes/fZ5/XttWbdPPb37f39v/2bc+45+4HAhRVgBcZVAFkbVoAVGF8BBoRHByswgQIMCA8PVoAB4THACiRTgK8gyXRjq4oowIBUJNEcZjIFGJBkurFVRRRgQCqSaA4zmQIMSDLd2KoiCjAgFUk0h5lMAQYkmW5sVREFGJCKJJrDTKYAA5JMN7aqiAIMSEUSzWEmU4ABSaYbW1VEAQakIonmMJMpwIAk042tKqIAA1KRRHOYyRRgQJLpxlYVUYABqUiiOcxkCjAgyXRjq4oowIBUJNEcZjIFGJBkurFVRRRgQCqSaA4zmQIMSDLdOrZqNpvvaLVaUxzHmUxEBxDRZAA4ABF3fALAzs+tALANALYS0TbHcXZ8qr+3//3XiPhUq9XaoD5HR0c3DA0NPddxR7hiIgUYkESyjW3UaDQOcV33aAB4dxzHxyHi+wDgdQab2N3VCwDwFBHtgAYRV42MjNw7b968LSm2WSnXDIhGuuv1+rGu684BgGMUFADwNg13xkyJaI2CBRHvQ8R1nuf93JjzijliQLpMeL1eP7oNxUkAML1L86yqP4SI9xPRSiHErVl1oojtMiAdZC0Mw8Mcx5lDRAqKWgcmea6yHgCGW63W8ODg4FN57mge+saATJCFMAxPcRznHCKal4dkGe7DqAKFiIaDILjDsO/SuGNAxkhlGIbzAeAcRJxVmkxPEAgRPaBgmTRp0g3HH3/8r6sQc6cxMiC7KCWlPEOBAQB+pwKWqR4RPeM4ztUjIyPX8JOw32eWAQEAKaWCQv2cUKYBrxHLYwBwjRDiXzR8lMK00oCoWylEvJjBGHcsr1VXFM/zbirFaE8QRCUBkVKqx7MKjNMSaFZFkxVxHF9Tq9WWVS34SgHSbDbf1mq1FiDiRVVLtIl4EfGq/v7+K4477rjnTfgrgo9KALJ8+fLX9Pf3X0xECg41/4lLcgUeI6IvBUEwnNxFcSxLD0iz2QyI6OtE9CfFSUshevrt0dHRK2bNmvXLQvQ2YSdLDYiU8uMAsBgAehPqw2YTK7ABAK4QQiwtq1ClBURKeTUAKEC4pKwAIl4/Ojq6YObMmWp2calKKQEJw7CBiEHOM/W/ALAREX8ex/FGAHgeEScR0ST1CQB/+CGigxDx7XmOBxHXvvzyyxcMDg4+mud+dtu3UgGyevXq17VaLfUl8k3dCpFGfSKKEfERANjx02q1HnFdV0093yiEUAuhOi5E5K5atWqKWnwFAGoB1juISP3Z69hJyhURUS3gOtf3/dI8Di4NII1G40THce5OeQzsyf1mIrpDrcWI4/hRx3EeFUK8uCcjnf/fsGHDa5555hnPcRyhrppEpBZpZV0uEkKoW9zCl1IAEoahh4hRhtn4PhEtQ8Q7hBDqdimzUq/X3+667oCaaElEJwPAa7PojOM43/A876+zaNtkm4UHJCs42guQvuc4zh2e56k1FrkrUsq3tCE5GRGHMujgrUKI0zNo11iThQYkIzjUleJG3/dvMZYFC46azea74jhWoJxq+Z3Q7UKIUy2EmEoThQXEJhxEpDZBWBrH8dLBwcHVqWTCktOdswrac9HeYKnZK4UQX7DUltFmCgmIRTjUk6ZFCg4hxI+NKp+xMynlwYi4gIg+YaMriHim7/s32mjLZBuFA8QiHLcQ0aIgCNRqu9KWMAyntaf8f8hCkB8UQvynhXaMNVEoQOr1+gGu6z5rLPqxHT2OiIuK+NtOR5coiv6SiK4AgLfo+NmTreM4Nc/zwj3Vy8v/FwaQ4eFhd//991dTGdJ8bLmop6dn0YwZMzblJUE2+6F2gYzjWEHyZym2u0k9UfN9//4U2zDmujCASCnVbx1hLPJXOnosjuNLarXaD1LyXyi3URRd2L6avD6ljj/ZarXmDg4O/k9K/o25LQQgUsqvA8CnjUX9Skc39/b2XjJ9+vRST9vuVrv2BnmXA8AHurXtpD4R3RYEgY3vPZ10Z9w6uQdESvlZAPiaVpTjG39BCHFlSr5L4TaKoiVEdF5KwVwmhPhySr6NuM01IM1m8+w4jq8zEukrnTxNRJcEQfC9FHyXzmUURYuI6DNpBEZEc4MguDMN3yZ85haQ9sYKabyUe1rdNggh1NY2XDpUQEp5LgBc22H1jqsh4hOtVmtWrVb7RcdGFivmFpAoiu4kIrVzurFCRL9ExJOEEA8bc1ohR2EYHomIxn+xIOJNvu9/NI9S5hKQ9lJZ09OlN8VxfGytVlNXEC4JFVi3bl3vyMjI9oTm45qpW7ggCNTDmFyV3AGituaJ41jdWr3ZoFIvua570MDAgFrFx0VTgRRf2J4ghLhHs3tGzXMHSBiGSxDR9FOT/m5X8BlVuYTOpJSHA8CTJkNr7zT/pyZ96vrKFSBSSvXM/XbdoHa17+vrO2DatGl8lp9JUdu+0ljF6TjOaZ7n/UcK3U3kMjeAqGnYkyZNWmVyyWjR5v0kymDGRmEYnoSI/2WwG3cJIWYY9KflKjeASCn/FgAWakWzizERfTIIgqtM+WM/4ysgpfwkAHzLlEaI+Anf9//RlD8dP7kAZMWKFZP7+vrUtHIjM0mJ6NogCM7XEYZtu1NASqlWWJqaOvKTVqt1wuDgYOaH+eQCkCiKPkdEX+kuJePWXtvb2zs0ffr0EUP+2E0HCtTr9Xe6rqsmlJra+3iREOLSDppOtUrmgKxcuXLfnp4edfU4xESkcRzXarVaYdYbmIg5Lz7CMDwfEb9tqD/b4jg+sVarPWjIXyI3mQMSRdGniOjvE/X+1Ua5+K1jKJZCuomi6DtE9OeGOv8NIUSmWwdlCoiUci8AUL8hjjAg6MO9vb0DfGtlQEkNF2qtOwCoF73a3yfVmYl9fX1HZZnTrAH5KwAw8rTCdd0PDQwM3KaRWzY1pICU8hIA+IYhd+cKIdKY0d1R9zIDZOHChY7neeq7x7s76ukElfipla6CZu3by6PXAsCxup4R8Qe+72ex6d2OrmcGiJRSzd40ca7Es3EcH1+r1X6mmwy2N6dAFEUfJiIjh38S0fQgCDLZdzlLQBQcJqY48xdzc+PaqCcppdri5xRdp+psRN/31ctI6yUTQNasWbPf1q1bNyDifpoRb3Mc5z2e5xmdNKfZJzZvKyCl9NUx9AYEebbVah01ODho/fDQTAAxdXuFiEt83/+YgQSwi5QUCMPwOkQ8W9c9Il7o+/4/6/rp1j4rQIzcXjmOM83zvDXdBs317SnQaDQGHMdpGmhxmRBCHedgtVgHxODtVeG31rea6Qwbk1Kq6esf1OzCVtd132p70Zt1QEzdXgHAPCGEyWnWmvlj8/EUCMPwFEQ0sSfvWUKIG2wqnQUgJm6vHhdCHGVTKG5LTwEppfqyrr6065TvCiHO0HHQra1VQO655559tmzZ8hPdp1dE9NUgCD7fbbBcPzsFpJRnAcD1Oj1Qh4T6vm9qtnBHXbEKSBiGQ4j4/Y56NnGl3C3uNxBTqV0QEUZR9IzuHC0iGgyCoGFLLKuANBqNhY7jqJWDiQsirvZ9fyCxAzbMTAEp5c0AoLUpAxEtDoLgU7aCsAqIlFJdPbTm1eR1/yRbCStyO2EYfgIR/0EnBiJ6KgiCw3R8dGNrFZAwDF9AxH266eDudYno8CAIfqTjg22zUaC96vBx3dZt7lRjDRBDe+0+IISYqisw22enQBRFTxHRO3R6YPN7iE1A1Prir2oKsyQIAp5aoiNixraGNgZcIIQwtovKRJLYBES91DtJJz9E9LEgCJbo+GDbbBVoNpunxnGstbANEf/V9/1zbERiE5DfAsC+mkEdIYT4oaYPNs9QgUaj8WbHcTZqduF+IcT7NH10ZG4FkLvvvnvy9u3btfY4UkcXBEFgckPrjgTiSuYVkFKqrWD31/C8VQjRr2HfsakVQKSU6ou17qmmtwkhTG1M1rFAXNG8AmEYrkDEWTqeHceZ4nneBh0fndhaAcTEfScAXCqEWNRJUFwn3wpIKdWZk+rsycTF1ibXVgCRUl4MAIsTq/F7wzOEEN/V9MHmOVBASqnepqu36olLHMeX12o1Y3s5j9cRK4BEUfRNIlqQWA0AICI/CAITC290usG2BhSo1+tTXNfVetlra8qJFUCklLcCwGk62sZxfCgfn6ajYL5spZSx5q461wkh1MGiqRYrgERRdB8Rae2R9NJLL+01Z86cbamqwc6tKRBF0WYimqTR4C1CiPka9h2ZWgFESvmszq7fWawD6Eg9rpRYASnl/wHA6xM7AFghhJitYd+RqRVAoihqEZHTUY/GqISID/q+/96k9myXPwWklD/XWRuCiGt93z8x7cisACKl3AIAOi92IiGESFsM9m9PASmleodxqEaLVpZd2wJkEwD8kYYYDIiGeHk0lVI+CgDv0ujbRiHEgRr2HZnaAuRXAPCGjno0diUGREO8PJpKKdV56Mcl7RsR/S4IAt25fXts3hYgPwWAg/bYm/ErMCAa4pk0DcNwPiL+u0mfWfpCxGHf98ddBmwFkDAMf4SIUzSEYEA0xDNtWiJI9vio2AogURQ9QkRHaySKAdEQLw3TEkCyRziUblYAkVLep3mYCgOSxijX9FlgSDqCwyYg6sy66UnzQURPBEFwZFJ7tktPgQJC0jEcNgHROkgFEUd839faDSW9IcKeCwRJV3BYAySKoquI6CKdobR58+b95s6dq96ncMmhAgWApGs4rAEipfw0AHxdJ6+tVuuYwcFB9XKJS04VyDEkieCwBkiz2Zwfx7HWs3MimhsEwZ05HRvcrbYCOYQkMRzWAJFSHg8A6ljgxCWO4wtrtZr1I7gSd7jChjmCRAsOa4DcddddbxodHf2F5pj5lhBCa1WiZvts3oUCOYBEGw5rgKiGpJSjANDThcavqIqIj/q+f0xSe7azr0CGkBiBwyogURQ9TURv10zTgUII3U3HNLvA5t0okAEkxuCwCoihI7h4Z5NuRmdO6lqExCgcVgExcXgOEV0bBMH5Ock7d6MLBSxAYhwOq4BIKdUBjuogR53yYyGE1tb5Oo2zrZ4CURSdTkTDel7GtE4FDquArFu3btLIyMhmA+Lw+YQGRMzKRQqQpAaHVUBUY4a+h1wphPhCVgnmdvUVMAhJqnBkAciXAEB3cK8XQuisLdHPMHvQVsAAJKnDYR2QKIrmEdEduuoS0ewgCFbo+mH7bBXQgMQKHNYBkVKqjRvUBg5aBRH/yff9j2s5YeNcKJAAEmtwWAek/T1kDQCcoJmdjdu3bz98aGjIxJd+za6wua4CXUBiFY5MAImi6HNE9BVdUeM4/kitVvs3XT9snw8FOoDEOhyZACKlPBwAntRNCyIu833/ZF0/bJ8fBSaAJBM4MgGkfZt1OwB8wEBq5gkh1Om5XEqiwBiQZAZHZoCEYXgmIt5gIKfLhBB8FTEgZJ5c7AJJpnBkBsjy5cv36e/vfwIATJxay1eRPI1uQ31RkPi+f4shd4ndWNkXa6zeSSmvBgATj2r5KpI4/Wy4JwUyAyQMwxoi1vfUwQ7/n68iHQrF1bpTIDNAVDejKLqXiN7XXZdfXZuIwiAIarp+2J4V2F2BTAGRUl4AAEY2YkDEz/q+/3ecYlbApAKZArJu3breF1988QEi0jlIZYceiPg7IvKEEA+bFIh9VVuBTAFR0kspPwkA3zKUhluFEKcb8sVuWAE7u7tPpLOUcm8iekDz/JA/NIGI5/u+fy3nlhUwoUDmVxAVRBiGn0HERSYCAoCfAcBsIcQPDfljNxVWIBeArFmzZr9t27Y9AAAHm8iFOiLY87wZiNgy4Y99VFeBXADS/i6iVhqqFYemyn8LIeaYcsZ+qqlAbgBZtWrVG1utllorYuQq0n6ydZPv+x+tZmo5ahMK5AaQ9neRsxHxOhOB7eLjMiHElw37ZHcVUSBXgLRvtZYCgNHf+o7jDHme94OK5JTDNKhA7gBZvXr1lJdffjkCgDcajFO5EkII5ZcLK9CxArkDpH0VMTYFZTcleFJjx0Nj7Irts16GhBCXa7oqhHkuAVHKRVE0TERpvBU/SwhhYrFWIRJsspNRFL2fiL4NAAcCwMIqQJJbQFauXPku13UjRNzPZJKVLyK6JAiCb5r2W2Z/YRh+BBGXAMBrd4mz9JDkFpD2rZbJeVq7j99FQohLyzyoTcUmpVQL29QCt7FKqSHJNSAqG2EYLkHE80wlezc/twLARUKIZ1PyX3i3Usq/AYA9PSYvLSS5B6QNSQMRgzRGGyI+iIgXeZ6nXlJyaSsQhuGRAHAFIp7aoSilhKQQgLSPTnjc5Fv23ZL+goLE9/0bOxwMpa6mFrIh4uVENLnLQEsHSSEAUUmq1+vvdF1XQZJaieP48jiOF8+cOfOF1BrJseNGo3GI4zjq8a3Oi9pSQVIYQNS4aj9mXJ7yGHsSERdXbU2JlPJcRLyMiN5qQN/SQFIoQFTiTK5j38NAaBDR4iAI7jQwYHLrIgzDOYh4MQDMNNzJUkBSOEDaV5LPE9GVhhM6pjsiuhERrxJCrLPRnq02pJTvBgAFxl+k2GbhISkkIG1IziMi9eLKSkFEdfjkUt/3l1lpMKVGpJQHq2XJRLQAAPZKqZld3RYaksIC0oYkrVNTJxo3q4lo6T777LN06tSpWywMMCNNhGF4EiIqvU5HxElGnHbm5FIhhKnl1J21aLBWoQHJEBLV9I/VFYWI6kEQ3G0wJ8Zcta8WO6AAgGONOe7c0QVCCDV3q7Cl8IBkDMnOxKvHz3XXdW8fGBhoZjkaVq5c+Z6enp4BRDwxjuO5lq8Wu4b+YSHEzVlqYaLtUgCSE0h25AMRf0lE6vyTtY7jPOh5nvZhQRMlWm14sXXr1tlqUVgcx9MQ8RATA0PDxwuu6350YGCgFE//SgOISmgYhqciopqle5BGgk2bbkXEhwDgISJSP+o9y/Ou6z4/Y8aM5xEx7qTBZrN54Ojo6OGu6x4GAIch4mFEpE7rUlPP81J+5jjOmZ7nrcpLh3T7USpAlBjNZvOIVqu1GBGHdMWxYY+Im4joeSL6DSKOImI/Eakv0f0AsONT/R0RHRv90WjjYcdxzvY8T/0yKE0pHSA7MyOlXNx+zl+aZOU4kGt6enoumzFjxqYc9zFR10oLSPuW63wAUFcTm481EyWioEZPq+kpvu+X9rThUgOiBl0URTPUlBEAeG9BB2Euu42I32m1Wl+s1Wpqq9fSltIDojInpfxjAPgaAJxT2kxaCgwRn1NXDc/zrM1isBTamM1UApCdkTcajVmO46j5R+/PUvSito2ItxPRF4UQjxU1hm77XSlAdvkCf5aai4SIR3crWEXrR67rXj0wMHBb1eKvJCAqycuWLZu09957qwl76oqibsG4vFoBdW7LNb7vX19VcSoLyC5Xk0MRcQERqY0heqs6EHaLewMiXv3cc89dM3/+/EofIVF5QHYOjPaS3jMBQP2Y3va0KNz9FADU5uFXCyF+W5ROp9lPBmQ3dVesWDG5r69vJyjah4ummTyDvr+v1rts27ZteGhoaLNBv4V3xYCMk8KFCxc6nuftBEUUPtOvDuBXADAcx/FwrVbjLY/GSTAD0sHIbzQa73ddd5CI1Lrtol9VpAJDXS1mz579mw7Cr3QVBqTL9Nfr9WNd1z0JAAYBYFqX5tarq4mQag7nzp8gCB6x3okCN8iAaCSvXq8f0NPTM4eIFDAKljdouDNpei8iNtQiLt/31RWDS0IFGJCEwo1lJqV8SxzH6gozlYjUEtepAPA6g02M5Wo9Iq4noh0/fX19q6ZPnz6ScpuVcc+ApJxqKeWhbVCORMR9AWBfItrxOcbfYyLaBgBbAeAVn+rf1doRANgBguu66z3PW59y9yvvngGp/BBgASZSgAHh8cEKTKAAA8LDgxVgQHgMsALJFOArSDLd2KoiCjAgFUk0h5lMAQYkmW5sVREFGJCKJJrDTKYAA5JMN7aqiAIMSEUSzWEmU4ABSaYbW1VEAQakIonmMJMpwIAk042tKqIAA1KRRHOYyRRgQJLpxlYVUYABqUiiOcxkCjAgyXRjq4oowIBUJNEcZjIFGJBkurFVRRRgQCqSaA4zmQIMSDLd2KoiCjAgFUk0h5lMAQYkmW5sVREFGJCKJJrDTKYAA5JMN7aqiAL/Dwq69jIqY/mZAAAAAElFTkSuQmCC;rotation=-154;" parent="1" vertex="1">
          <mxGeometry x="500" y="170" width="120" height="120" as="geometry" />
        </mxCell>
        <mxCell id="jZKKh2bfGqSGBnHuGTNr-12" value="Fetch &lt;br&gt;loop" style="text;html=1;align=center;verticalAlign=middle;resizable=0;points=[];autosize=1;" parent="1" vertex="1">
          <mxGeometry x="535" y="215" width="50" height="30" as="geometry" />
        </mxCell>
        <mxCell id="jZKKh2bfGqSGBnHuGTNr-13" value="Processor::run_task()" style="text;html=1;align=center;verticalAlign=middle;resizable=0;points=[];autosize=1;strokeColor=none;fillColor=none;" parent="1" vertex="1">
          <mxGeometry x="580" y="260" width="130" height="20" as="geometry" />
        </mxCell>
        <mxCell id="jZKKh2bfGqSGBnHuGTNr-15" value="" style="sketch=0;pointerEvents=1;shadow=0;dashed=0;html=1;strokeColor=none;fillColor=#434445;aspect=fixed;labelPosition=center;verticalLabelPosition=bottom;verticalAlign=top;align=center;outlineConnect=0;shape=mxgraph.vvd.cpu;fontColor=#007FFF;" parent="1" vertex="1">
          <mxGeometry x="362" y="331" width="50" height="50" as="geometry" />
        </mxCell>
        <mxCell id="jZKKh2bfGqSGBnHuGTNr-16" value="Process" style="rounded=0;whiteSpace=wrap;html=1;strokeColor=#d6b656;strokeWidth=1;fillColor=#fff2cc;dashed=1;" parent="1" vertex="1">
          <mxGeometry x="344.5" y="271" width="81" height="60" as="geometry" />
        </mxCell>
        <mxCell id="jZKKh2bfGqSGBnHuGTNr-21" value="&lt;font color=&quot;#000000&quot;&gt;CPU&lt;/font&gt;" style="text;html=1;align=center;verticalAlign=middle;resizable=0;points=[];autosize=1;strokeColor=none;fillColor=none;fontColor=#007FFF;" parent="1" vertex="1">
          <mxGeometry x="367" y="346" width="40" height="20" as="geometry" />
        </mxCell>
        <mxCell id="jZKKh2bfGqSGBnHuGTNr-24" value="Timer fired or &lt;br&gt;process exited,&lt;br&gt;TCB enqueue" style="text;html=1;align=center;verticalAlign=middle;resizable=0;points=[];autosize=1;strokeColor=none;fillColor=none;fontColor=#000000;" parent="1" vertex="1">
          <mxGeometry x="225" y="245" width="100" height="50" as="geometry" />
        </mxCell>
        <mxCell id="jZKKh2bfGqSGBnHuGTNr-25" value="TCB dequeue" style="text;html=1;align=center;verticalAlign=middle;resizable=0;points=[];autosize=1;strokeColor=none;fillColor=none;fontColor=#000000;" parent="1" vertex="1">
          <mxGeometry x="470" y="280" width="90" height="20" as="geometry" />
        </mxCell>
        <mxCell id="jZKKh2bfGqSGBnHuGTNr-27" value="..." style="text;html=1;align=center;verticalAlign=middle;resizable=0;points=[];autosize=1;strokeColor=none;fillColor=none;fontColor=#000000;" parent="1" vertex="1">
          <mxGeometry x="430.5" y="159" width="30" height="20" as="geometry" />
        </mxCell>
      </root>
    </mxGraphModel>
  </diagram>
  <diagram id="XsLozvxHmXmNDbqe1diY" name="Page-2">
    <mxGraphModel dx="681" dy="470" grid="1" gridSize="10" guides="1" tooltips="1" connect="1" arrows="1" fold="1" page="1" pageScale="1" pageWidth="827" pageHeight="1169" math="0" shadow="0">
      <root>
        <mxCell id="0" />
        <mxCell id="1" parent="0" />
        <mxCell id="U3ljlg7KPt-45RsP69BK-11" value="" style="rounded=0;whiteSpace=wrap;html=1;strokeColor=#82b366;strokeWidth=1;fillColor=#d5e8d4;dashed=1;" vertex="1" parent="1">
          <mxGeometry x="240" y="360" width="430" height="60" as="geometry" />
        </mxCell>
        <mxCell id="U3ljlg7KPt-45RsP69BK-7" value="" style="rounded=0;whiteSpace=wrap;html=1;strokeColor=#82b366;strokeWidth=1;fillColor=#d5e8d4;dashed=1;" vertex="1" parent="1">
          <mxGeometry x="240" y="250" width="430" height="60" as="geometry" />
        </mxCell>
        <mxCell id="U3ljlg7KPt-45RsP69BK-1" value="Task 1" style="rounded=0;whiteSpace=wrap;html=1;strokeWidth=1;" vertex="1" parent="1">
          <mxGeometry x="250" y="260" width="60" height="40" as="geometry" />
        </mxCell>
        <mxCell id="U3ljlg7KPt-45RsP69BK-2" value="Task 2" style="rounded=0;whiteSpace=wrap;html=1;strokeWidth=1;" vertex="1" parent="1">
          <mxGeometry x="320" y="260" width="60" height="40" as="geometry" />
        </mxCell>
        <mxCell id="U3ljlg7KPt-45RsP69BK-3" value="Task 3" style="rounded=0;whiteSpace=wrap;html=1;strokeWidth=1;" vertex="1" parent="1">
          <mxGeometry x="390" y="260" width="60" height="40" as="geometry" />
        </mxCell>
        <mxCell id="U3ljlg7KPt-45RsP69BK-4" value="Task 1" style="rounded=0;whiteSpace=wrap;html=1;strokeWidth=1;" vertex="1" parent="1">
          <mxGeometry x="460" y="260" width="60" height="40" as="geometry" />
        </mxCell>
        <mxCell id="U3ljlg7KPt-45RsP69BK-5" value="Task 2" style="rounded=0;whiteSpace=wrap;html=1;strokeWidth=1;" vertex="1" parent="1">
          <mxGeometry x="530" y="260" width="60" height="40" as="geometry" />
        </mxCell>
        <mxCell id="U3ljlg7KPt-45RsP69BK-6" value="Task 3" style="rounded=0;whiteSpace=wrap;html=1;strokeWidth=1;" vertex="1" parent="1">
          <mxGeometry x="600" y="260" width="60" height="40" as="geometry" />
        </mxCell>
        <mxCell id="U3ljlg7KPt-45RsP69BK-8" value="1. CPU workload without fetch loop" style="text;html=1;align=left;verticalAlign=middle;resizable=0;points=[];autosize=1;strokeColor=none;fillColor=none;fontColor=#000000;" vertex="1" parent="1">
          <mxGeometry x="240" y="220" width="200" height="20" as="geometry" />
        </mxCell>
        <mxCell id="U3ljlg7KPt-45RsP69BK-9" value="2. CPU workload with fetch loop" style="text;html=1;align=left;verticalAlign=middle;resizable=0;points=[];autosize=1;strokeColor=none;fillColor=none;fontColor=#000000;" vertex="1" parent="1">
          <mxGeometry x="240" y="330" width="190" height="20" as="geometry" />
        </mxCell>
        <mxCell id="U3ljlg7KPt-45RsP69BK-10" value="Task 1" style="rounded=0;whiteSpace=wrap;html=1;strokeWidth=1;" vertex="1" parent="1">
          <mxGeometry x="250" y="370" width="60" height="40" as="geometry" />
        </mxCell>
        <mxCell id="U3ljlg7KPt-45RsP69BK-12" value="Task 2" style="rounded=0;whiteSpace=wrap;html=1;strokeWidth=1;" vertex="1" parent="1">
          <mxGeometry x="320" y="370" width="60" height="40" as="geometry" />
        </mxCell>
        <mxCell id="U3ljlg7KPt-45RsP69BK-13" value="Task 1&lt;br&gt;(exited)" style="rounded=0;whiteSpace=wrap;html=1;strokeWidth=1;" vertex="1" parent="1">
          <mxGeometry x="390" y="370" width="60" height="40" as="geometry" />
        </mxCell>
        <mxCell id="U3ljlg7KPt-45RsP69BK-14" value="Task 2&lt;br&gt;(exited)" style="rounded=0;whiteSpace=wrap;html=1;strokeWidth=1;" vertex="1" parent="1">
          <mxGeometry x="460" y="370" width="60" height="40" as="geometry" />
        </mxCell>
        <mxCell id="U3ljlg7KPt-45RsP69BK-15" value="fetch loop" style="rounded=0;whiteSpace=wrap;html=1;strokeWidth=1;dashed=1;" vertex="1" parent="1">
          <mxGeometry x="530" y="370" width="60" height="40" as="geometry" />
        </mxCell>
        <mxCell id="U3ljlg7KPt-45RsP69BK-16" value="Task 3" style="rounded=0;whiteSpace=wrap;html=1;strokeWidth=1;" vertex="1" parent="1">
          <mxGeometry x="600" y="370" width="60" height="40" as="geometry" />
        </mxCell>
      </root>
    </mxGraphModel>
  </diagram>
  <diagram id="kIazCCoEDY_U1xgQH0Hg" name="Page-3">
    <mxGraphModel dx="823" dy="568" grid="1" gridSize="10" guides="1" tooltips="1" connect="1" arrows="1" fold="1" page="1" pageScale="1" pageWidth="827" pageHeight="1169" math="0" shadow="0">
      <root>
        <mxCell id="0" />
        <mxCell id="1" parent="0" />
        <mxCell id="oKv76ajuy_dwlbfhq3Xw-2" value="" style="rounded=0;whiteSpace=wrap;html=1;dashed=1;" vertex="1" parent="1">
          <mxGeometry x="320" y="190" width="100" height="210" as="geometry" />
        </mxCell>
        <mxCell id="oKv76ajuy_dwlbfhq3Xw-3" value="" style="rounded=0;whiteSpace=wrap;html=1;dashed=1;" vertex="1" parent="1">
          <mxGeometry x="500" y="190" width="100" height="210" as="geometry" />
        </mxCell>
        <mxCell id="oKv76ajuy_dwlbfhq3Xw-43" value="Ready" style="rounded=0;whiteSpace=wrap;html=1;fillColor=#dae8fc;strokeColor=#6c8ebf;" vertex="1" parent="1">
          <mxGeometry x="510" y="350" width="80" height="40" as="geometry" />
        </mxCell>
        <mxCell id="oKv76ajuy_dwlbfhq3Xw-1" value="" style="rounded=0;whiteSpace=wrap;html=1;dashed=1;" vertex="1" parent="1">
          <mxGeometry x="140" y="190" width="100" height="210" as="geometry" />
        </mxCell>
        <mxCell id="oKv76ajuy_dwlbfhq3Xw-4" value="Task 1" style="text;html=1;align=center;verticalAlign=middle;resizable=0;points=[];autosize=1;strokeColor=none;fillColor=none;" vertex="1" parent="1">
          <mxGeometry x="160" y="415" width="60" height="30" as="geometry" />
        </mxCell>
        <mxCell id="oKv76ajuy_dwlbfhq3Xw-5" value="Task 2" style="text;html=1;align=center;verticalAlign=middle;resizable=0;points=[];autosize=1;strokeColor=none;fillColor=none;" vertex="1" parent="1">
          <mxGeometry x="340" y="415" width="60" height="30" as="geometry" />
        </mxCell>
        <mxCell id="oKv76ajuy_dwlbfhq3Xw-6" value="Task 3" style="text;html=1;align=center;verticalAlign=middle;resizable=0;points=[];autosize=1;strokeColor=none;fillColor=none;" vertex="1" parent="1">
          <mxGeometry x="520" y="415" width="60" height="30" as="geometry" />
        </mxCell>
        <mxCell id="oKv76ajuy_dwlbfhq3Xw-9" style="edgeStyle=orthogonalEdgeStyle;rounded=1;orthogonalLoop=1;jettySize=auto;html=1;exitX=1;exitY=1;exitDx=0;exitDy=0;entryX=0;entryY=0;entryDx=0;entryDy=0;" edge="1" parent="1" source="oKv76ajuy_dwlbfhq3Xw-7" target="oKv76ajuy_dwlbfhq3Xw-8">
          <mxGeometry relative="1" as="geometry">
            <Array as="points">
              <mxPoint x="230" y="250" />
            </Array>
          </mxGeometry>
        </mxCell>
        <mxCell id="oKv76ajuy_dwlbfhq3Xw-7" value="Running" style="rounded=0;whiteSpace=wrap;html=1;fillColor=#d5e8d4;strokeColor=#82b366;" vertex="1" parent="1">
          <mxGeometry x="150" y="200" width="80" height="40" as="geometry" />
        </mxCell>
        <mxCell id="oKv76ajuy_dwlbfhq3Xw-12" style="edgeStyle=orthogonalEdgeStyle;rounded=1;orthogonalLoop=1;jettySize=auto;html=1;exitX=1;exitY=1;exitDx=0;exitDy=0;entryX=0;entryY=0;entryDx=0;entryDy=0;" edge="1" parent="1" source="oKv76ajuy_dwlbfhq3Xw-8" target="oKv76ajuy_dwlbfhq3Xw-11">
          <mxGeometry relative="1" as="geometry">
            <Array as="points">
              <mxPoint x="410" y="300" />
            </Array>
          </mxGeometry>
        </mxCell>
        <mxCell id="oKv76ajuy_dwlbfhq3Xw-8" value="Running" style="rounded=0;whiteSpace=wrap;html=1;fillColor=#d5e8d4;strokeColor=#82b366;" vertex="1" parent="1">
          <mxGeometry x="330" y="250" width="80" height="40" as="geometry" />
        </mxCell>
        <mxCell id="oKv76ajuy_dwlbfhq3Xw-10" value="timer fired,&lt;br&gt;switched to &lt;br&gt;task 2" style="text;html=1;align=center;verticalAlign=middle;resizable=0;points=[];autosize=1;strokeColor=none;fillColor=none;" vertex="1" parent="1">
          <mxGeometry x="240" y="190" width="80" height="60" as="geometry" />
        </mxCell>
        <mxCell id="oKv76ajuy_dwlbfhq3Xw-15" style="edgeStyle=orthogonalEdgeStyle;rounded=1;orthogonalLoop=1;jettySize=auto;html=1;exitX=1;exitY=1;exitDx=0;exitDy=0;entryX=1;entryY=0;entryDx=0;entryDy=0;" edge="1" parent="1" source="oKv76ajuy_dwlbfhq3Xw-11" target="oKv76ajuy_dwlbfhq3Xw-14">
          <mxGeometry relative="1" as="geometry">
            <Array as="points">
              <mxPoint x="590" y="350" />
            </Array>
          </mxGeometry>
        </mxCell>
        <mxCell id="oKv76ajuy_dwlbfhq3Xw-11" value="Running" style="rounded=0;whiteSpace=wrap;html=1;fillColor=#d5e8d4;strokeColor=#82b366;" vertex="1" parent="1">
          <mxGeometry x="510" y="300" width="80" height="40" as="geometry" />
        </mxCell>
        <mxCell id="oKv76ajuy_dwlbfhq3Xw-13" value="timer fired,&lt;br&gt;switched to &lt;br&gt;task 3" style="text;html=1;align=center;verticalAlign=middle;resizable=0;points=[];autosize=1;strokeColor=none;fillColor=none;" vertex="1" parent="1">
          <mxGeometry x="420" y="240" width="80" height="60" as="geometry" />
        </mxCell>
        <mxCell id="oKv76ajuy_dwlbfhq3Xw-14" value="Running" style="rounded=0;whiteSpace=wrap;html=1;fillColor=#d5e8d4;strokeColor=#82b366;" vertex="1" parent="1">
          <mxGeometry x="150" y="350" width="80" height="40" as="geometry" />
        </mxCell>
        <mxCell id="oKv76ajuy_dwlbfhq3Xw-16" value="timer fired,&lt;br&gt;switched to &lt;br&gt;task 1" style="text;html=1;align=center;verticalAlign=middle;resizable=0;points=[];autosize=1;strokeColor=none;fillColor=none;" vertex="1" parent="1">
          <mxGeometry x="420" y="350" width="80" height="60" as="geometry" />
        </mxCell>
        <mxCell id="oKv76ajuy_dwlbfhq3Xw-17" value="" style="rounded=0;whiteSpace=wrap;html=1;dashed=1;" vertex="1" parent="1">
          <mxGeometry x="140" y="480" width="100" height="220" as="geometry" />
        </mxCell>
        <mxCell id="oKv76ajuy_dwlbfhq3Xw-18" value="" style="rounded=0;whiteSpace=wrap;html=1;dashed=1;" vertex="1" parent="1">
          <mxGeometry x="320" y="480" width="100" height="220" as="geometry" />
        </mxCell>
        <mxCell id="oKv76ajuy_dwlbfhq3Xw-19" value="" style="rounded=0;whiteSpace=wrap;html=1;dashed=1;" vertex="1" parent="1">
          <mxGeometry x="500" y="480" width="100" height="220" as="geometry" />
        </mxCell>
        <mxCell id="oKv76ajuy_dwlbfhq3Xw-20" value="Task 1" style="text;html=1;align=center;verticalAlign=middle;resizable=0;points=[];autosize=1;strokeColor=none;fillColor=none;" vertex="1" parent="1">
          <mxGeometry x="160" y="715" width="60" height="30" as="geometry" />
        </mxCell>
        <mxCell id="oKv76ajuy_dwlbfhq3Xw-21" value="Idle &lt;br&gt;Control Flow" style="text;html=1;align=center;verticalAlign=middle;resizable=0;points=[];autosize=1;strokeColor=none;fillColor=none;" vertex="1" parent="1">
          <mxGeometry x="325" y="710" width="90" height="40" as="geometry" />
        </mxCell>
        <mxCell id="oKv76ajuy_dwlbfhq3Xw-22" value="Task 2" style="text;html=1;align=center;verticalAlign=middle;resizable=0;points=[];autosize=1;strokeColor=none;fillColor=none;" vertex="1" parent="1">
          <mxGeometry x="520" y="715" width="60" height="30" as="geometry" />
        </mxCell>
        <mxCell id="oKv76ajuy_dwlbfhq3Xw-23" style="edgeStyle=orthogonalEdgeStyle;rounded=1;orthogonalLoop=1;jettySize=auto;html=1;exitX=1;exitY=1;exitDx=0;exitDy=0;entryX=0;entryY=0;entryDx=0;entryDy=0;" edge="1" parent="1" source="oKv76ajuy_dwlbfhq3Xw-24" target="oKv76ajuy_dwlbfhq3Xw-26">
          <mxGeometry relative="1" as="geometry">
            <Array as="points">
              <mxPoint x="230" y="540" />
            </Array>
          </mxGeometry>
        </mxCell>
        <mxCell id="oKv76ajuy_dwlbfhq3Xw-24" value="Running" style="rounded=0;whiteSpace=wrap;html=1;fillColor=#d5e8d4;strokeColor=#82b366;" vertex="1" parent="1">
          <mxGeometry x="150" y="490" width="80" height="40" as="geometry" />
        </mxCell>
        <mxCell id="oKv76ajuy_dwlbfhq3Xw-25" style="edgeStyle=orthogonalEdgeStyle;rounded=1;orthogonalLoop=1;jettySize=auto;html=1;exitX=1;exitY=1;exitDx=0;exitDy=0;entryX=0;entryY=0;entryDx=0;entryDy=0;" edge="1" parent="1" source="oKv76ajuy_dwlbfhq3Xw-26" target="oKv76ajuy_dwlbfhq3Xw-29">
          <mxGeometry relative="1" as="geometry">
            <Array as="points">
              <mxPoint x="410" y="570" />
              <mxPoint x="510" y="570" />
            </Array>
          </mxGeometry>
        </mxCell>
        <mxCell id="oKv76ajuy_dwlbfhq3Xw-26" value="&lt;font style=&quot;font-size: 10px;&quot;&gt;fetch loop&lt;/font&gt;" style="rounded=0;whiteSpace=wrap;html=1;fillColor=#d5e8d4;strokeColor=#82b366;" vertex="1" parent="1">
          <mxGeometry x="330" y="540" width="80" height="20" as="geometry" />
        </mxCell>
        <mxCell id="oKv76ajuy_dwlbfhq3Xw-27" value="timer fired,&lt;br&gt;switched to &lt;br&gt;idle &lt;br&gt;control flow" style="text;html=1;align=center;verticalAlign=middle;resizable=0;points=[];autosize=1;strokeColor=none;fillColor=none;" vertex="1" parent="1">
          <mxGeometry x="240" y="470" width="80" height="70" as="geometry" />
        </mxCell>
        <mxCell id="oKv76ajuy_dwlbfhq3Xw-34" style="edgeStyle=orthogonalEdgeStyle;rounded=1;orthogonalLoop=1;jettySize=auto;html=1;exitX=1;exitY=1;exitDx=0;exitDy=0;entryX=1;entryY=0;entryDx=0;entryDy=0;fontSize=10;" edge="1" parent="1" source="oKv76ajuy_dwlbfhq3Xw-29" target="oKv76ajuy_dwlbfhq3Xw-33">
          <mxGeometry relative="1" as="geometry">
            <Array as="points">
              <mxPoint x="590" y="620" />
            </Array>
          </mxGeometry>
        </mxCell>
        <mxCell id="oKv76ajuy_dwlbfhq3Xw-29" value="Running" style="rounded=0;whiteSpace=wrap;html=1;fillColor=#d5e8d4;strokeColor=#82b366;" vertex="1" parent="1">
          <mxGeometry x="510" y="570" width="80" height="40" as="geometry" />
        </mxCell>
        <mxCell id="oKv76ajuy_dwlbfhq3Xw-30" value="fetched &lt;br&gt;task 2,&lt;br&gt;switched to &lt;br&gt;task 2" style="text;html=1;align=center;verticalAlign=middle;resizable=0;points=[];autosize=1;strokeColor=none;fillColor=none;" vertex="1" parent="1">
          <mxGeometry x="420" y="505" width="80" height="70" as="geometry" />
        </mxCell>
        <mxCell id="oKv76ajuy_dwlbfhq3Xw-37" style="edgeStyle=orthogonalEdgeStyle;rounded=1;orthogonalLoop=1;jettySize=auto;html=1;exitX=0;exitY=1;exitDx=0;exitDy=0;entryX=1;entryY=0;entryDx=0;entryDy=0;fontSize=10;" edge="1" parent="1" source="oKv76ajuy_dwlbfhq3Xw-33" target="oKv76ajuy_dwlbfhq3Xw-36">
          <mxGeometry relative="1" as="geometry">
            <Array as="points">
              <mxPoint x="330" y="650" />
            </Array>
          </mxGeometry>
        </mxCell>
        <mxCell id="oKv76ajuy_dwlbfhq3Xw-33" value="&lt;span style=&quot;font-size: 10px;&quot;&gt;fetch loop&lt;/span&gt;" style="rounded=0;whiteSpace=wrap;html=1;fillColor=#d5e8d4;strokeColor=#82b366;" vertex="1" parent="1">
          <mxGeometry x="330" y="620" width="80" height="20" as="geometry" />
        </mxCell>
        <mxCell id="oKv76ajuy_dwlbfhq3Xw-35" value="timer fired,&lt;br&gt;switched to &lt;br&gt;idle &lt;br&gt;control flow" style="text;html=1;align=center;verticalAlign=middle;resizable=0;points=[];autosize=1;strokeColor=none;fillColor=none;" vertex="1" parent="1">
          <mxGeometry x="420" y="620" width="80" height="70" as="geometry" />
        </mxCell>
        <mxCell id="oKv76ajuy_dwlbfhq3Xw-36" value="Running" style="rounded=0;whiteSpace=wrap;html=1;fillColor=#d5e8d4;strokeColor=#82b366;" vertex="1" parent="1">
          <mxGeometry x="150" y="650" width="80" height="40" as="geometry" />
        </mxCell>
        <mxCell id="oKv76ajuy_dwlbfhq3Xw-38" value="fetched &lt;br&gt;task 1,&lt;br&gt;switched to &lt;br&gt;task 1" style="text;html=1;align=center;verticalAlign=middle;resizable=0;points=[];autosize=1;strokeColor=none;fillColor=none;" vertex="1" parent="1">
          <mxGeometry x="240" y="650" width="80" height="70" as="geometry" />
        </mxCell>
        <mxCell id="oKv76ajuy_dwlbfhq3Xw-39" value="Ready" style="rounded=0;whiteSpace=wrap;html=1;fillColor=#dae8fc;strokeColor=#6c8ebf;" vertex="1" parent="1">
          <mxGeometry x="150" y="250" width="80" height="90" as="geometry" />
        </mxCell>
        <mxCell id="oKv76ajuy_dwlbfhq3Xw-40" value="Ready" style="rounded=0;whiteSpace=wrap;html=1;fillColor=#dae8fc;strokeColor=#6c8ebf;" vertex="1" parent="1">
          <mxGeometry x="330" y="200" width="80" height="40" as="geometry" />
        </mxCell>
        <mxCell id="oKv76ajuy_dwlbfhq3Xw-42" value="Ready" style="rounded=0;whiteSpace=wrap;html=1;fillColor=#dae8fc;strokeColor=#6c8ebf;" vertex="1" parent="1">
          <mxGeometry x="510" y="200" width="80" height="90" as="geometry" />
        </mxCell>
        <mxCell id="oKv76ajuy_dwlbfhq3Xw-41" value="Ready" style="rounded=0;whiteSpace=wrap;html=1;fillColor=#dae8fc;strokeColor=#6c8ebf;" vertex="1" parent="1">
          <mxGeometry x="330" y="300" width="80" height="90" as="geometry" />
        </mxCell>
        <mxCell id="oKv76ajuy_dwlbfhq3Xw-44" value="Ready" style="rounded=0;whiteSpace=wrap;html=1;fillColor=#dae8fc;strokeColor=#6c8ebf;" vertex="1" parent="1">
          <mxGeometry x="150" y="540" width="80" height="100" as="geometry" />
        </mxCell>
        <mxCell id="oKv76ajuy_dwlbfhq3Xw-45" value="Ready" style="rounded=0;whiteSpace=wrap;html=1;fillColor=#dae8fc;strokeColor=#6c8ebf;" vertex="1" parent="1">
          <mxGeometry x="510" y="490" width="80" height="70" as="geometry" />
        </mxCell>
        <mxCell id="oKv76ajuy_dwlbfhq3Xw-46" value="Ready" style="rounded=0;whiteSpace=wrap;html=1;fillColor=#dae8fc;strokeColor=#6c8ebf;" vertex="1" parent="1">
          <mxGeometry x="510" y="620" width="80" height="70" as="geometry" />
        </mxCell>
      </root>
    </mxGraphModel>
  </diagram>
</mxfile>
